<svg width="40" height="40" viewBox="0 0 40 40" fill="none" xmlns="http://www.w3.org/2000/svg">
<path d="M16.95 31.6667C17.199 31.6675 17.445 31.6126 17.67 31.5059C17.895 31.3992 18.0931 31.2434 18.25 31.05L26.3 21.05C26.5452 20.7518 26.6792 20.3777 26.6792 19.9917C26.6792 19.6056 26.5452 19.2316 26.3 18.9334L17.9667 8.93336C17.6838 8.59299 17.2773 8.37895 16.8366 8.33832C16.3958 8.29769 15.957 8.43379 15.6167 8.71669C15.2763 8.99959 15.0623 9.40611 15.0216 9.84682C14.981 10.2875 15.1171 10.7263 15.4 11.0667L22.85 20L15.65 28.9334C15.4462 29.178 15.3167 29.4759 15.2769 29.7918C15.2371 30.1077 15.2887 30.4284 15.4254 30.716C15.5622 31.0035 15.7785 31.2459 16.0486 31.4144C16.3188 31.5828 16.6316 31.6704 16.95 31.6667Z" fill="white"/>
</svg>
