<svg width="40" height="40" viewBox="0 0 40 40" fill="none" xmlns="http://www.w3.org/2000/svg">
<path d="M23.05 31.6667C22.801 31.6675 22.555 31.6126 22.33 31.5059C22.105 31.3992 21.9069 31.2434 21.75 31.05L13.7 21.05C13.4549 20.7518 13.3208 20.3777 13.3208 19.9917C13.3208 19.6056 13.4549 19.2316 13.7 18.9334L22.0333 8.93336C22.3162 8.59299 22.7227 8.37895 23.1634 8.33832C23.6042 8.29769 24.043 8.43379 24.3833 8.71669C24.7237 8.99959 24.9377 9.40611 24.9784 9.84682C25.019 10.2875 24.8829 10.7263 24.6 11.0667L17.15 20L24.35 28.9334C24.5538 29.178 24.6833 29.4759 24.7231 29.7918C24.7629 30.1077 24.7113 30.4284 24.5746 30.716C24.4378 31.0035 24.2215 31.2459 23.9514 31.4144C23.6812 31.5828 23.3684 31.6704 23.05 31.6667Z" fill="white"/>
</svg>
