<svg width="22" height="20" viewBox="0 0 22 20" fill="none" xmlns="http://www.w3.org/2000/svg">
<path d="M9.57324 2.00879C10.0223 0.626822 11.9777 0.626824 12.4268 2.00879L13.4434 5.1377C13.7781 6.16736 14.7376 6.86405 15.8203 6.86426H19.1104C20.5634 6.86426 21.1676 8.72399 19.9922 9.57812L17.3311 11.5117C16.4549 12.1483 16.0883 13.2766 16.4229 14.3066L17.4395 17.4355C17.8885 18.8175 16.3064 19.9664 15.1309 19.1123L12.4697 17.1787C11.6482 16.5819 10.5538 16.5451 9.69824 17.0674L9.53027 17.1787L6.86914 19.1123C5.69357 19.9664 4.11152 18.8175 4.56055 17.4355L5.57715 14.3066C5.91171 13.2766 5.5451 12.1483 4.66895 11.5117L2.00781 9.57812C0.832362 8.72399 1.4366 6.86426 2.88965 6.86426H6.17969C7.2624 6.86405 8.22188 6.16736 8.55664 5.1377L9.57324 2.00879Z" fill="#EFC61C" stroke="black"/>
</svg>
