<svg width="33" height="29" viewBox="0 0 33 29" fill="none" xmlns="http://www.w3.org/2000/svg">
<path d="M15.375 3C10.875 6.78125 8.625 10.5 8.625 14.1562C8.625 17.4688 10.375 19.9844 13.875 21.7031C13.875 23.7344 13.2656 25.3281 12.0469 26.4844C10.8594 27.6094 9.34375 28.1719 7.5 28.1719C5.5 28.1719 3.84375 27.3906 2.53125 25.8281C1.21875 24.2656 0.5625 22.3281 0.5625 20.0156C0.5625 16.4219 1.67188 13.0312 3.89062 9.84375C6.10938 6.625 9.23438 3.5 13.2656 0.46875L15.375 3ZM32.6719 3C28.1719 6.78125 25.9219 10.5 25.9219 14.1562C25.9219 17.4688 27.6719 19.9844 31.1719 21.7031C31.1719 23.7344 30.5625 25.3281 29.3438 26.4844C28.1562 27.6094 26.6406 28.1719 24.7969 28.1719C22.7969 28.1719 21.1406 27.3906 19.8281 25.8281C18.5156 24.2656 17.8594 22.3281 17.8594 20.0156C17.8594 16.4219 18.9688 13.0312 21.1875 9.84375C23.4062 6.625 26.5312 3.5 30.5625 0.46875L32.6719 3Z" fill="white"/>
</svg>
