<svg width="33" height="29" viewBox="0 0 33 29" fill="none" xmlns="http://www.w3.org/2000/svg">
<path d="M0.328125 25.5312C4.82812 21.75 7.07812 18.0312 7.07812 14.375C7.07812 11.0625 5.32812 8.54688 1.82812 6.82812C1.82812 4.79688 2.42188 3.21875 3.60938 2.09375C4.82812 0.9375 6.35938 0.359375 8.20312 0.359375C10.2031 0.359375 11.8594 1.14063 13.1719 2.70312C14.4844 4.26562 15.1406 6.20313 15.1406 8.51562C15.1406 12.1094 14.0312 15.5156 11.8125 18.7344C9.59375 21.9219 6.46875 25.0312 2.4375 28.0625L0.328125 25.5312ZM17.625 25.5312C22.125 21.75 24.375 18.0312 24.375 14.375C24.375 11.0625 22.625 8.54688 19.125 6.82812C19.125 4.79688 19.7188 3.21875 20.9062 2.09375C22.125 0.9375 23.6562 0.359375 25.5 0.359375C27.5 0.359375 29.1562 1.14063 30.4688 2.70312C31.7812 4.26562 32.4375 6.20313 32.4375 8.51562C32.4375 12.1094 31.3281 15.5156 29.1094 18.7344C26.8906 21.9219 23.7656 25.0312 19.7344 28.0625L17.625 25.5312Z" fill="white"/>
</svg>
