<svg width="12" height="16" viewBox="0 0 12 16" fill="none" xmlns="http://www.w3.org/2000/svg">
<path d="M1.28556 1.00565C1.48491 0.905633 1.70871 0.861137 1.93234 0.87706C2.15597 0.892983 2.37076 0.968708 2.55306 1.0959L11.0843 7.0334C11.2423 7.14325 11.3711 7.28828 11.4599 7.45641C11.5488 7.62454 11.5951 7.81092 11.5951 8.00003C11.5951 8.18914 11.5488 8.37552 11.4599 8.54365C11.3711 8.71178 11.2423 8.8568 11.0843 8.96665L2.55306 14.9042C2.37082 15.0312 2.15614 15.1069 1.93263 15.1228C1.70911 15.1388 1.48542 15.0943 1.28614 14.9944C1.08686 14.8945 0.919715 14.743 0.803075 14.5565C0.686435 14.3701 0.624819 14.1559 0.625001 13.9375V2.06253C0.624766 1.84422 0.686297 1.63008 0.802831 1.44363C0.919366 1.25718 1.08639 1.10564 1.28556 1.00565Z" fill="#333333"/>
</svg>
