<svg width="32" height="32" viewBox="0 0 32 32" fill="none" xmlns="http://www.w3.org/2000/svg">
<path d="M16.4532 12.1206C14.2244 12.1206 12.4055 13.9395 12.4055 16.1683C12.4055 18.397 14.2244 20.2159 16.4532 20.2159C18.682 20.2159 20.5008 18.397 20.5008 16.1683C20.5008 13.9395 18.682 12.1206 16.4532 12.1206ZM28.5931 16.1683C28.5931 14.4921 28.6082 12.8312 28.5141 11.1581C28.42 9.2147 27.9766 7.48998 26.5556 6.0689C25.1315 4.64479 23.4098 4.2045 21.4664 4.11037C19.7903 4.01624 18.1293 4.03142 16.4562 4.03142C14.7801 4.03142 13.1191 4.01624 11.446 4.11037C9.50267 4.2045 7.77794 4.64783 6.35687 6.0689C4.93275 7.49302 4.49246 9.2147 4.39833 11.1581C4.3042 12.8342 4.31938 14.4952 4.31938 16.1683C4.31938 17.8414 4.3042 19.5054 4.39833 21.1785C4.49246 23.1218 4.93579 24.8465 6.35687 26.2676C7.78098 27.6917 9.50267 28.132 11.446 28.2261C13.1222 28.3203 14.7831 28.3051 16.4562 28.3051C18.1324 28.3051 19.7933 28.3203 21.4664 28.2261C23.4098 28.132 25.1345 27.6887 26.5556 26.2676C27.9797 24.8435 28.42 23.1218 28.5141 21.1785C28.6113 19.5054 28.5931 17.8444 28.5931 16.1683ZM16.4532 22.3961C13.0068 22.3961 10.2253 19.6147 10.2253 16.1683C10.2253 12.7218 13.0068 9.94042 16.4532 9.94042C19.8996 9.94042 22.681 12.7218 22.681 16.1683C22.681 19.6147 19.8996 22.3961 16.4532 22.3961ZM22.9361 11.1398C22.1314 11.1398 21.4816 10.49 21.4816 9.68536C21.4816 8.88069 22.1314 8.23088 22.9361 8.23088C23.7407 8.23088 24.3906 8.88069 24.3906 9.68536C24.3908 9.87643 24.3533 10.0657 24.2803 10.2422C24.2073 10.4188 24.1002 10.5793 23.9651 10.7144C23.83 10.8495 23.6695 10.9566 23.493 11.0296C23.3164 11.1026 23.1272 11.1401 22.9361 11.1398Z" fill="#E9E9E9"/>
</svg>
