<svg width="35" height="34" viewBox="0 0 35 34" fill="none" xmlns="http://www.w3.org/2000/svg">
<path d="M26.0635 7.14765H9.57399C6.33743 7.14765 3.71567 9.74115 3.71567 12.941V21.0931C3.71567 24.293 6.33884 26.8879 9.57399 26.8879H26.0635C29.3001 26.8879 31.9218 24.293 31.9218 21.0931V12.941C31.9218 9.74115 29.2987 7.14624 26.0635 7.14624V7.14765ZM22.1019 17.4128L14.3893 21.0522C14.3422 21.0748 14.2902 21.0852 14.2381 21.0823C14.1859 21.0795 14.1354 21.0635 14.0911 21.0358C14.0468 21.0082 14.0102 20.9698 13.9848 20.9242C13.9593 20.8786 13.9458 20.8274 13.9455 20.7751V13.2717C13.9464 13.2192 13.9606 13.1678 13.9868 13.1223C14.0129 13.0768 14.0502 13.0387 14.095 13.0115C14.1399 12.9842 14.1909 12.9688 14.2434 12.9666C14.2958 12.9644 14.3479 12.9755 14.3949 12.9989L22.109 16.8644C22.1603 16.89 22.2034 16.9296 22.2333 16.9786C22.2632 17.0277 22.2787 17.0841 22.278 17.1415C22.2772 17.1989 22.2603 17.255 22.2292 17.3032C22.198 17.3514 22.1539 17.3899 22.1019 17.4142V17.4128Z" fill="#DF2424"/>
</svg>
