<svg width="74" height="73" viewBox="0 0 74 73" fill="none" xmlns="http://www.w3.org/2000/svg">
<path d="M54.0334 29.5143C54.0334 20.0699 46.7022 12.3877 37.6886 12.3877C28.675 12.3877 21.3428 20.0699 21.3428 29.5184C21.3459 29.9898 21.5731 41.2886 34.6649 61.1973C34.9344 61.7432 35.3428 62.2109 35.8503 62.5546C36.3577 62.8982 36.9469 63.1062 37.5601 63.1582C39.4513 63.1582 40.7401 61.104 40.8655 60.8952C54.0406 40.9743 54.0406 29.9635 54.0334 29.5143ZM37.6886 36.4118C36.2488 36.4118 34.8413 35.9906 33.6441 35.2014C32.4469 34.4123 31.5139 33.2907 30.9629 31.9784C30.4119 30.6661 30.2678 29.2221 30.5488 27.829C30.8298 26.436 31.5232 25.1564 32.5414 24.1521C33.5596 23.1478 34.8568 22.4639 36.269 22.1869C37.6812 21.9099 39.145 22.0523 40.4752 22.596C41.8053 23.1397 42.9422 24.0603 43.742 25.2414C44.5418 26.4225 44.9686 27.811 44.9684 29.2314C44.9662 31.1353 44.1985 32.9606 42.8337 34.3067C41.4689 35.6528 39.6186 36.4099 37.6886 36.4118Z" fill="#D22F27"/>
<path d="M54.0334 29.5143C54.0334 20.0699 46.7022 12.3877 37.6886 12.3877C36.3466 12.3934 35.0111 12.5723 33.7162 12.92C42.3444 13.3762 49.2357 20.8516 49.2357 30.004C49.2419 30.4532 49.2419 41.464 36.0668 61.3839C35.8895 61.6695 35.688 61.9398 35.4645 62.1919C35.7292 62.485 36.0516 62.7218 36.4121 62.8881C36.7725 63.0544 37.1635 63.1466 37.5612 63.1592C39.4512 63.1592 40.7401 61.104 40.8655 60.8952C54.0406 40.9743 54.0406 29.9635 54.0334 29.5143Z" fill="#EA5A47"/>
<path d="M37.6886 36.4118C36.2488 36.4118 34.8413 35.9906 33.6441 35.2015C32.4469 34.4123 31.5139 33.2907 30.9629 31.9784C30.4119 30.6661 30.2678 29.2221 30.5488 27.8291C30.8298 26.436 31.5232 25.1564 32.5414 24.1521C33.5596 23.1478 34.8568 22.4639 36.269 22.1869C37.6812 21.91 39.145 22.0523 40.4752 22.596C41.8053 23.1397 42.9422 24.0603 43.742 25.2414C44.5418 26.4225 44.9686 27.8111 44.9684 29.2315C44.9662 31.1353 44.1985 32.9606 42.8337 34.3067C41.4689 35.6529 39.6186 36.4099 37.6886 36.4118Z" fill="#171717"/>
</svg>
